<?xml version="1.0" ?><svg id="Layer_1" style="enable-background:new 0 0 512 512;" version="1.1" viewBox="0 0 512 512" xml:space="preserve" xmlns="http://www.w3.org/2000/svg" xmlns:xlink="http://www.w3.org/1999/xlink"><style type="text/css">
	.st0{fill:#2BB673;}
	.st1{fill:#FFFFFF;}
</style><path class="st0" d="M489,252.2c0-0.2,0-0.5,0-0.7c0-1.6,0-3.2-0.1-4.7c0-0.9-0.1-1.8-0.1-2.8  c0-0.9-0.1-1.8-0.1-2.7c-0.1-1.1-0.1-2.2-0.2-3.3c0-0.7-0.1-1.4-0.1-2.1c-0.1-1.2-0.2-2.4-0.3-3.6c0-0.5-0.1-1.1-0.1-1.6  c-0.1-1.3-0.3-2.6-0.4-4c0-0.3-0.1-0.7-0.1-1C474.3,109.5,375.7,19.2,256,19.2S37.7,109.5,24.5,225.7c0,0.3-0.1,0.7-0.1,1  c-0.1,1.3-0.3,2.6-0.4,4c-0.1,0.5-0.1,1.1-0.1,1.6c-0.1,1.2-0.2,2.4-0.3,3.6c0,0.7-0.1,1.4-0.1,2.1c-0.1,1.1-0.1,2.2-0.2,3.3  c0,0.9-0.1,1.8-0.1,2.7c0,0.9-0.1,1.8-0.1,2.8c0,1.6-0.1,3.2-0.1,4.7c0,0.2,0,0.5,0,0.7c0,0,0,0,0,0.1s0,0,0,0.1c0,0.2,0,0.5,0,0.7  c0,1.6,0,3.2,0.1,4.7c0,0.9,0.1,1.8,0.1,2.8c0,0.9,0.1,1.8,0.1,2.7c0.1,1.1,0.1,2.2,0.2,3.3c0,0.7,0.1,1.4,0.1,2.1  c0.1,1.2,0.2,2.4,0.3,3.6c0,0.5,0.1,1.1,0.1,1.6c0.1,1.3,0.3,2.6,0.4,4c0,0.3,0.1,0.7,0.1,1C37.7,395,136.3,485.3,256,485.3  S474.3,395,487.5,278.8c0-0.3,0.1-0.7,0.1-1c0.1-1.3,0.3-2.6,0.4-4c0.1-0.5,0.1-1.1,0.1-1.6c0.1-1.2,0.2-2.4,0.3-3.6  c0-0.7,0.1-1.4,0.1-2.1c0.1-1.1,0.1-2.2,0.2-3.3c0-0.9,0.1-1.8,0.1-2.7c0-0.9,0.1-1.8,0.1-2.8c0-1.6,0.1-3.2,0.1-4.7  c0-0.2,0-0.5,0-0.7C489,252.3,489,252.3,489,252.2C489,252.3,489,252.2,489,252.2z" id="XMLID_491_"/><circle class="st1" cx="256" cy="252.3" id="XMLID_490_" r="159.5"/><g id="XMLID_5_"><path class="st0" d="M170.3,194.3l9.5,7.7c-8.2,5.4-15.6,15.6-16.4,23.8c0.3,0,2-0.3,3.3-0.3   c7.2,0,12.3,5.4,12.3,13.1c0,7.4-5.9,13.6-13.6,13.6c-8.4,0-15.9-6.9-15.9-19.5C149.5,217.1,158.5,202.7,170.3,194.3z M211.2,194.3   l9.5,7.7c-8.2,5.4-15.4,15.6-16.4,23.8c0.3,0,2-0.3,3.3-0.3c7.2,0,12.5,5.4,12.5,13.1c0,7.4-6.1,13.6-13.8,13.6   c-8.4,0-15.9-6.9-15.9-19.5C190.5,217.1,199.5,202.7,211.2,194.3z" id="XMLID_6_"/></g><g id="XMLID_1_"><path class="st0" d="M299.7,307.9l-9.5-7.9c8.2-5.4,15.6-15.6,16.6-23.8c-0.5,0.3-2.3,0.5-3.6,0.5   c-7.2,0-12.3-5.4-12.3-13.1c0-7.4,5.9-13.8,13.6-13.8c8.4,0,16.1,6.9,16.1,19.5C320.7,284.9,311.5,299.5,299.7,307.9z M341,307.9   l-9.5-7.9c8.2-5.4,15.4-15.6,16.4-23.8c-0.5,0.3-2.3,0.5-3.3,0.5c-7.2,0-12.5-5.4-12.5-13.1c0-7.4,6.1-13.8,13.6-13.8   c8.4,0,16.1,6.9,16.1,19.5C361.7,284.9,352.5,299.5,341,307.9z" id="XMLID_2_"/></g></svg>